<svg width="74" height="74" viewBox="0 0 74 74" fill="none" xmlns="http://www.w3.org/2000/svg">
<g filter="url(#filter0_d_14062_17486)">
<rect x="69" y="69" width="64" height="64" rx="10" transform="rotate(-180 69 69)" fill="url(#paint0_linear_14062_17486)"/>
<mask id="mask0_14062_17486" style="mask-type:alpha" maskUnits="userSpaceOnUse" x="5" y="5" width="64" height="64">
<rect x="69" y="5" width="64" height="64" rx="10" transform="rotate(90 69 5)" fill="#FFBE76"/>
</mask>
<g mask="url(#mask0_14062_17486)">
<path d="M77.0586 -19.9599C71.3844 -19.9578 65.8042 -18.5132 60.8446 -15.7624C55.885 -13.0115 51.7094 -9.0451 48.7118 -4.23733C45.7142 0.570437 43.9934 6.06103 43.7118 11.7165C43.4302 17.3719 44.5971 23.0057 47.1023 28.0863C49.6075 33.1669 53.3685 37.5269 58.0304 40.7549C62.6923 43.9828 68.1014 45.9724 73.7475 46.5358C79.3936 47.0992 85.0904 46.2178 90.3005 43.975C95.5106 41.7321 100.062 38.2016 103.526 33.7166L103.526 5.30212L110.202 9.1532L113.157 10.8572L113.157 27.8974L122.787 22.3508L122.787 13.9926L130.027 18.1589L139.914 12.4931L100.905 -9.98289C97.7975 -13.1487 94.087 -15.6622 89.9918 -17.3756C85.8965 -19.089 81.4992 -19.9677 77.0586 -19.9599V-19.9599ZM61.4941 13.3706C61.4941 10.3256 62.3989 7.34902 64.0942 4.81719C65.7894 2.28537 68.1989 0.312072 71.018 -0.853198C73.8371 -2.01847 76.9391 -2.32336 79.9318 -1.72931C82.9245 -1.13526 85.6735 0.331048 87.8311 2.48418C89.9888 4.63732 91.4581 7.38058 92.0534 10.3671C92.6487 13.3536 92.3432 16.4491 91.1755 19.2623C90.0078 22.0755 88.0304 24.48 85.4933 26.1717C82.9562 27.8634 79.9733 28.7664 76.922 28.7664C74.8956 28.7675 72.889 28.3701 71.0167 27.5968C69.1444 26.8234 67.4432 25.6894 66.0103 24.2596C64.5775 22.8297 63.4411 21.1321 62.6662 19.2637C61.8913 17.3953 61.493 15.3927 61.4941 13.3706V13.3706Z" fill="#A52332" fill-opacity="0.5" style="mix-blend-mode:luminosity"/>
<path d="M3.61206 76.8974C9.28628 76.8953 14.8664 75.4507 19.8261 72.6999C24.7857 69.949 28.9613 65.9826 31.9589 61.1748C34.9565 56.3671 36.6772 50.8765 36.9588 45.221C37.2404 39.5656 36.0736 33.9318 33.5684 28.8512C31.0632 23.7706 27.3022 19.4106 22.6403 16.1826C17.9784 12.9547 12.5692 10.9651 6.92316 10.4017C1.2771 9.83833 -4.41971 10.7197 -9.62982 12.9625C-14.8399 15.2054 -19.3915 18.7359 -22.8553 23.2209L-22.8553 51.6354L-29.5318 47.7843L-32.4859 46.0803L-32.4859 29.0401L-42.1166 34.5867L-42.1166 42.9449L-49.3567 38.7786L-59.2435 44.4444L-20.2341 66.9204C-17.1268 70.0861 -13.4164 72.5997 -9.32114 74.3131C-5.22588 76.0265 -0.828559 76.9052 3.61206 76.8974V76.8974ZM19.1766 43.5669C19.1766 46.6119 18.2717 49.5885 16.5765 52.1203C14.8813 54.6521 12.4717 56.6254 9.65266 57.7907C6.83358 58.956 3.73155 59.2609 0.738837 58.6668C-2.25388 58.0728 -5.00286 56.6064 -7.16049 54.4533C-9.31812 52.3002 -10.7875 49.5569 -11.3828 46.5704C-11.9781 43.5839 -11.6725 40.4884 -10.5048 37.6752C-9.33714 34.8619 -7.35971 32.4575 -4.8226 30.7658C-2.2855 29.074 0.697323 28.1711 3.74867 28.1711C5.775 28.17 7.78169 28.5674 9.65399 29.3407C11.5263 30.1141 13.2275 31.2481 14.6603 32.6779C16.0932 34.1078 17.2295 35.8054 18.0045 37.6738C18.7794 39.5422 19.1777 41.5448 19.1766 43.5669V43.5669Z" fill="#A52332" fill-opacity="0.5" style="mix-blend-mode:luminosity"/>
</g>
<path d="M48.373 25.8193C48.3735 23.8751 47.8816 21.9628 46.9437 20.263C46.0058 18.5632 44.6528 17.1318 43.0125 16.1041C41.3722 15.0764 39.4986 14.4862 37.5687 14.3892C35.6387 14.2923 33.716 14.6917 31.9821 15.5499C30.2482 16.408 28.7602 17.6966 27.6586 19.2939C26.557 20.8913 25.8782 22.7447 25.6862 24.6793C25.4942 26.6139 25.7953 28.5658 26.5611 30.3508C27.327 32.1358 28.5323 33.6949 30.0633 34.8811H39.7577L38.4439 37.1649L37.8848 38.1774H32.0704L33.9601 41.4736H36.8058L35.3857 43.9543L37.3257 47.3292L44.9906 33.9699C46.0654 32.9063 46.9182 31.6375 47.499 30.2379C48.0798 28.8383 48.377 27.336 48.373 25.8193V25.8193ZM37.0015 20.4924C38.0397 20.4924 39.0547 20.8022 39.918 21.3826C40.7813 21.963 41.4542 22.7879 41.8515 23.753C42.2489 24.7181 42.3528 25.7802 42.1503 26.8047C41.9477 27.8293 41.4477 28.7704 40.7136 29.5091C39.9794 30.2478 39.044 30.7509 38.0256 30.9547C37.0073 31.1585 35.9517 31.0539 34.9925 30.6541C34.0332 30.2543 33.2133 29.5773 32.6365 28.7087C32.0596 27.8401 31.7517 26.8189 31.7517 25.7743C31.751 25.0805 31.8863 24.3933 32.1499 23.7521C32.4134 23.111 32.8001 22.5284 33.2877 22.0378C33.7753 21.5472 34.3544 21.1581 34.9916 20.893C35.6289 20.6278 36.3118 20.4917 37.0015 20.4924V20.4924Z" fill="white"/>
<path d="M20.9728 59.6632C20.8166 59.6747 20.6598 59.6532 20.5124 59.5999C20.3651 59.5466 20.2305 59.4627 20.1174 59.3538C20.0119 59.2372 19.9308 59.1003 19.8789 58.9515C19.8271 58.8027 19.8055 58.6449 19.8155 58.4875V50.7026C19.8038 50.5415 19.8266 50.3797 19.8826 50.2283C19.9385 50.0768 20.0263 49.9393 20.1398 49.8251C20.3906 49.6085 20.7157 49.4995 21.0455 49.5213C21.3139 49.5084 21.5801 49.5749 21.8114 49.7126C22.0369 49.8735 22.2193 50.0879 22.3425 50.3369L25.0876 55.3207L27.8382 50.3369C27.9726 50.0871 28.1643 49.8731 28.3973 49.7126C28.6218 49.5852 28.8778 49.5247 29.1353 49.5382C29.2929 49.5221 29.4521 49.5417 29.6012 49.5956C29.7503 49.6494 29.8856 49.7362 29.9971 49.8494C30.1086 49.9627 30.1935 50.0996 30.2456 50.2501C30.2977 50.4006 30.3156 50.561 30.2981 50.7194V58.51C30.3173 58.8269 30.2107 59.1384 30.0018 59.3763C29.759 59.5764 29.4548 59.6858 29.1408 59.6858C28.8269 59.6858 28.5227 59.5764 28.2799 59.3763C28.1744 59.2596 28.0933 59.1229 28.0414 58.974C27.9896 58.8252 27.968 58.6674 27.978 58.51V54.1844L26.0268 57.61C25.9216 57.7905 25.7808 57.9475 25.6131 58.0713C25.4431 58.17 25.2503 58.222 25.054 58.222C24.8577 58.222 24.6649 58.17 24.4949 58.0713C24.3262 57.9503 24.1867 57.7926 24.0868 57.61L22.1468 54.235V58.5044C22.1675 58.8205 22.063 59.1319 21.8561 59.3706C21.7384 59.4803 21.5985 59.5632 21.4461 59.6137C21.2937 59.6642 21.1323 59.681 20.9728 59.6632Z" fill="white"/>
<path d="M33.4065 59.6639C33.2336 59.6753 33.0603 59.6513 32.8969 59.5932C32.7335 59.5352 32.5836 59.4445 32.4561 59.3264C32.3382 59.1963 32.2477 59.0435 32.19 58.8772C32.1324 58.7109 32.1088 58.5346 32.1206 58.3589V50.9565C32.0989 50.7799 32.1175 50.6006 32.175 50.4323C32.2325 50.264 32.3273 50.1111 32.4524 49.9853C32.5775 49.8594 32.7294 49.764 32.8967 49.7061C33.064 49.6483 33.2422 49.6296 33.4177 49.6515H36.8504C37.785 49.59 38.7085 49.883 39.4389 50.4727C39.7477 50.7618 39.9894 51.1159 40.1469 51.5096C40.3044 51.9033 40.3738 52.3271 40.3502 52.7508C40.3684 53.4159 40.1723 54.069 39.7911 54.6127C39.3918 55.1341 38.8278 55.5031 38.1922 55.6589C38.4644 55.7407 38.7166 55.8791 38.9323 56.0652C39.148 56.2512 39.3225 56.4807 39.4445 56.7389L40.1434 57.9989C40.285 58.2424 40.3548 58.5214 40.3446 58.8033C40.3402 58.9222 40.3116 59.039 40.2607 59.1463C40.2097 59.2537 40.1374 59.3495 40.0483 59.4277C39.8101 59.6051 39.5166 59.6909 39.2209 59.6696C38.9125 59.6814 38.6068 59.6075 38.3376 59.4558C38.0789 59.2759 37.8709 59.0318 37.7338 58.7471L36.4591 56.4014C36.3692 56.215 36.2195 56.0644 36.0342 55.9739C35.8475 55.8917 35.6453 55.8514 35.4415 55.8558H34.6756V58.3646C34.687 58.5398 34.6636 58.7155 34.607 58.8816C34.5504 59.0476 34.4616 59.2007 34.3458 59.332C34.2195 59.4482 34.0712 59.5375 33.9098 59.5945C33.7484 59.6515 33.5772 59.6752 33.4065 59.6639V59.6639ZM34.6868 54.0389H36.364C37.3815 54.0389 37.8847 53.6396 37.8847 52.8352C37.8847 52.0308 37.3815 51.6371 36.364 51.6371H34.6868V54.0389Z" fill="white"/>
<path d="M42.9445 59.6321C42.7608 59.6414 42.5773 59.6117 42.4058 59.5448C42.2343 59.4779 42.0788 59.3754 41.9493 59.244C41.8256 59.1119 41.7292 58.9563 41.6658 58.7863C41.6025 58.6163 41.5734 58.4354 41.5803 58.254C41.5953 57.9847 41.686 57.7252 41.8419 57.5057C41.9978 57.2863 42.2125 57.1159 42.4609 57.0145C42.7093 56.9131 42.9813 56.8849 43.2451 56.933C43.5089 56.9812 43.7536 57.1038 43.9508 57.2865C44.0719 57.4156 44.1663 57.5676 44.2287 57.7337C44.2911 57.8997 44.3201 58.0766 44.3142 58.254C44.3272 58.6192 44.1967 58.9749 43.9508 59.244C43.8201 59.3769 43.6627 59.4802 43.4892 59.5471C43.3157 59.6141 43.13 59.643 42.9445 59.6321Z" fill="white"/>
<path d="M46.6016 59.5455C46.2829 59.5455 46.1264 59.3824 46.1264 59.0505V50.1406C46.1162 50.075 46.1215 50.0079 46.1416 49.9447C46.1617 49.8814 46.1962 49.8238 46.2423 49.7763C46.2884 49.7288 46.3449 49.6928 46.4073 49.6711C46.4696 49.6494 46.5361 49.6426 46.6016 49.6512H49.2963C49.9523 49.608 50.6102 49.6973 51.2314 49.9136C51.8526 50.13 52.4245 50.4692 52.9135 50.9112C53.7633 51.7549 54.1882 52.9812 54.1882 54.5899C54.1882 56.1987 53.7633 57.4268 52.9135 58.2743C52.4259 58.7191 51.8545 59.0609 51.2331 59.2792C50.6118 59.4976 49.9531 59.5882 49.2963 59.5455H46.6016ZM46.9762 58.7862H49.2124C51.9072 58.7862 53.2564 57.3874 53.2601 54.5899C53.2639 51.7924 51.9146 50.3974 49.2124 50.4049H46.9762V58.7862Z" fill="white"/>
</g>
<defs>
<filter id="filter0_d_14062_17486" x="0" y="0" width="74" height="74" filterUnits="userSpaceOnUse" color-interpolation-filters="sRGB">
<feFlood flood-opacity="0" result="BackgroundImageFix"/>
<feColorMatrix in="SourceAlpha" type="matrix" values="0 0 0 0 0 0 0 0 0 0 0 0 0 0 0 0 0 0 127 0" result="hardAlpha"/>
<feOffset/>
<feGaussianBlur stdDeviation="2.5"/>
<feComposite in2="hardAlpha" operator="out"/>
<feColorMatrix type="matrix" values="0 0 0 0 0.0784314 0 0 0 0 0.12549 0 0 0 0 0.254902 0 0 0 0.25 0"/>
<feBlend mode="normal" in2="BackgroundImageFix" result="effect1_dropShadow_14062_17486"/>
<feBlend mode="normal" in="SourceGraphic" in2="effect1_dropShadow_14062_17486" result="shape"/>
</filter>
<linearGradient id="paint0_linear_14062_17486" x1="101" y1="69" x2="101" y2="133" gradientUnits="userSpaceOnUse">
<stop stop-color="#BC2C3D"/>
<stop offset="1" stop-color="#E2184A"/>
</linearGradient>
</defs>
</svg>
